<svg width="1190" height="1190" viewBox="0 0 1190 1190" fill="none" xmlns="http://www.w3.org/2000/svg">
<g clip-path="url(#clip0_1_2)">
<path d="M570 595C570 923.609 570 881.401 570 1190C255.198 1190 0 923.609 0 595C0 266.391 255.198 0 570 0C570 500.255 570 266.391 570 595Z" fill="#333333"/>
<path d="M1190 285.874C1190 442.792 1062.4 570 905 570C747.599 570 620 442.792 620 285.874V9.32571C620 9.32571 1190 -78.6586 1190 285.874Z" fill="#63EA32"/>
<path d="M904.958 620C1062.38 620 1190 747.599 1190 905C1190 1062.4 1062.38 1190 904.958 1190H627.518C627.518 1190 548.182 620 904.958 620Z" fill="#63EA32"/>
</g>
<defs>
<clipPath id="clip0_1_2">
<rect width="1190" height="1190" fill="white"/>
</clipPath>
</defs>
</svg>
